<?xml version="1.0" encoding="UTF-8" standalone="no"?>
<!DOCTYPE svg PUBLIC "-//W3C//DTD SVG 1.0//EN"
 "http://www.w3.org/TR/2001/REC-SVG-20010904/DTD/svg10.dtd" [
 <!ATTLIST svg xmlns:xlink CDATA #FIXED "http://www.w3.org/1999/xlink">
]>
<!-- Generated by Graphviz version 2.12 (Sat Sep 22 01:28:26 UTC 2007)
     For user: (walter) Sebastian Walter -->
<!-- Title: _anonymous_0 Pages: 1 -->
<svg width="2.77in" height="10.27in"
 xmlns="http://www.w3.org/2000/svg" xmlns:xlink="http://www.w3.org/1999/xlink">
<g id="graph0" class="graph" transform="scale(1.33333 1.33333) rotate(0) translate(4 736)">
<title>_anonymous_0</title>
<polygon style="fill:white;stroke:white;" points="-4,4 -4,-736 196,-736 196,4 -4,4"/>
<!-- 0 -->
<g id="node1" class="node"><title>0</title>
<ellipse style="fill:#ffff00;stroke:black;" cx="38" cy="-721" rx="11" ry="11"/>
<text text-anchor="middle" x="38" y="-715" style="font-family:Nimbus Roman No9 L;font-weight:regular;font-size:11.34pt;fill:#000000;">v_0</text>
</g>
<!-- 3 -->
<g id="node2" class="node"><title>3</title>
<polygon style="fill:#000000;stroke:black;" points="88,-674 66,-674 66,-652 88,-652 88,-674"/>
<text text-anchor="middle" x="77" y="-657" style="font-family:Nimbus Roman No9 L;font-weight:regular;font-size:11.34pt;fill:#ffffff;">+</text>
</g>
<!-- 0&#45;&#45;3 -->
<g id="edge2" class="edge"><title>0&#45;&#45;3</title>
<path style="fill:none;stroke:black;" d="M44,-712C51,-701 62,-685 69,-674"/>
</g>
<!-- 5 -->
<g id="node4" class="node"><title>5</title>
<polygon style="fill:#000000;stroke:black;" points="88,-558 66,-558 66,-536 88,-536 88,-558"/>
<text text-anchor="middle" x="77" y="-541" style="font-family:Nimbus Roman No9 L;font-weight:regular;font-size:11.34pt;fill:#ffffff;">+</text>
</g>
<!-- 0&#45;&#45;5 -->
<g id="edge4" class="edge"><title>0&#45;&#45;5</title>
<path style="fill:none;stroke:black;" d="M39,-710C40,-687 45,-635 57,-594 60,-581 67,-568 71,-558"/>
</g>
<!-- 11 -->
<g id="node6" class="node"><title>11</title>
<polygon style="fill:#000000;stroke:black;" points="135,-210 113,-210 113,-188 135,-188 135,-210"/>
<text text-anchor="middle" x="124" y="-193" style="font-family:Nimbus Roman No9 L;font-weight:regular;font-size:11.34pt;fill:#ffffff;">+</text>
</g>
<!-- 0&#45;&#45;11 -->
<g id="edge6" class="edge"><title>0&#45;&#45;11</title>
<path style="fill:none;stroke:black;" d="M33,-711C22,-692 0,-646 0,-605 0,-605 0,-605 0,-315 0,-253 83,-215 113,-203"/>
</g>
<!-- 2 -->
<g id="node8" class="node"><title>2</title>
<ellipse style="fill:#ffff00;stroke:black;" cx="77" cy="-605" rx="11" ry="11"/>
<text text-anchor="middle" x="77" y="-599" style="font-family:Nimbus Roman No9 L;font-weight:regular;font-size:11.34pt;fill:#000000;">v_2</text>
</g>
<!-- 3&#45;&#45;2 -->
<g id="edge8" class="edge"><title>3&#45;&#45;2</title>
<path style="fill:none;stroke:black;" d="M77,-652C77,-642 77,-626 77,-616"/>
</g>
<!-- 4 -->
<g id="node10" class="node"><title>4</title>
<ellipse style="fill:#ffff00;stroke:black;" cx="77" cy="-489" rx="11" ry="11"/>
<text text-anchor="middle" x="77" y="-483" style="font-family:Nimbus Roman No9 L;font-weight:regular;font-size:11.34pt;fill:#000000;">v_4</text>
</g>
<!-- 5&#45;&#45;4 -->
<g id="edge10" class="edge"><title>5&#45;&#45;4</title>
<path style="fill:none;stroke:black;" d="M77,-536C77,-526 77,-510 77,-500"/>
</g>
<!-- 10 -->
<g id="node12" class="node"><title>10</title>
<ellipse style="fill:#ffff00;stroke:black;" cx="143" cy="-141" rx="11" ry="11"/>
<text text-anchor="middle" x="143" y="-135" style="font-family:Nimbus Roman No9 L;font-weight:regular;font-size:11.34pt;fill:#000000;">v_10</text>
</g>
<!-- 11&#45;&#45;10 -->
<g id="edge12" class="edge"><title>11&#45;&#45;10</title>
<path style="fill:none;stroke:black;" d="M128,-188C131,-178 136,-162 139,-152"/>
</g>
<!-- 2&#45;&#45;5 -->
<g id="edge28" class="edge"><title>2&#45;&#45;5</title>
<path style="fill:none;stroke:black;" d="M77,-594C77,-584 77,-568 77,-558"/>
</g>
<!-- 7 -->
<g id="node16" class="node"><title>7</title>
<polygon style="fill:#000000;stroke:black;" points="126,-442 104,-442 104,-420 126,-420 126,-442"/>
<text text-anchor="middle" x="115" y="-425" style="font-family:Nimbus Roman No9 L;font-weight:regular;font-size:11.34pt;fill:#ffffff;">+</text>
</g>
<!-- 4&#45;&#45;7 -->
<g id="edge30" class="edge"><title>4&#45;&#45;7</title>
<path style="fill:none;stroke:black;" d="M83,-480C90,-469 101,-453 108,-442"/>
</g>
<!-- 13 -->
<g id="node20" class="node"><title>13</title>
<polygon style="fill:#000000;stroke:black;" points="183,-94 161,-94 161,-72 183,-72 183,-94"/>
<text text-anchor="middle" x="172" y="-77" style="font-family:Nimbus Roman No9 L;font-weight:regular;font-size:11.34pt;fill:#ffffff;">+</text>
</g>
<!-- 10&#45;&#45;13 -->
<g id="edge36" class="edge"><title>10&#45;&#45;13</title>
<path style="fill:none;stroke:black;" d="M148,-131C153,-121 161,-105 166,-94"/>
</g>
<!-- 1 -->
<g id="node14" class="node"><title>1</title>
<ellipse style="fill:#ffff00;stroke:black;" cx="135" cy="-721" rx="11" ry="11"/>
<text text-anchor="middle" x="135" y="-715" style="font-family:Nimbus Roman No9 L;font-weight:regular;font-size:11.34pt;fill:#000000;">v_1</text>
</g>
<!-- 1&#45;&#45;3 -->
<g id="edge14" class="edge"><title>1&#45;&#45;3</title>
<path style="fill:none;stroke:black;" d="M127,-713C117,-703 100,-686 88,-674"/>
</g>
<!-- 1&#45;&#45;7 -->
<g id="edge16" class="edge"><title>1&#45;&#45;7</title>
<path style="fill:none;stroke:black;" d="M132,-710C127,-690 116,-644 116,-605 116,-605 116,-605 116,-547 116,-508 115,-463 115,-442"/>
</g>
<!-- 9 -->
<g id="node18" class="node"><title>9</title>
<polygon style="fill:#000000;stroke:black;" points="135,-326 113,-326 113,-304 135,-304 135,-326"/>
<text text-anchor="middle" x="124" y="-309" style="font-family:Nimbus Roman No9 L;font-weight:regular;font-size:11.34pt;fill:#ffffff;">+</text>
</g>
<!-- 1&#45;&#45;9 -->
<g id="edge18" class="edge"><title>1&#45;&#45;9</title>
<path style="fill:none;stroke:black;" d="M138,-710C143,-690 154,-644 154,-605 154,-605 154,-605 154,-431 154,-391 137,-346 129,-326"/>
</g>
<!-- 1&#45;&#45;13 -->
<g id="edge20" class="edge"><title>1&#45;&#45;13</title>
<path style="fill:none;stroke:black;" d="M142,-713C158,-694 192,-649 192,-605 192,-605 192,-605 192,-199 192,-160 181,-115 175,-94"/>
</g>
<!-- 6 -->
<g id="node22" class="node"><title>6</title>
<ellipse style="fill:#ffff00;stroke:black;" cx="115" cy="-373" rx="11" ry="11"/>
<text text-anchor="middle" x="115" y="-367" style="font-family:Nimbus Roman No9 L;font-weight:regular;font-size:11.34pt;fill:#000000;">v_6</text>
</g>
<!-- 7&#45;&#45;6 -->
<g id="edge22" class="edge"><title>7&#45;&#45;6</title>
<path style="fill:none;stroke:black;" d="M115,-420C115,-410 115,-394 115,-384"/>
</g>
<!-- 8 -->
<g id="node24" class="node"><title>8</title>
<ellipse style="fill:#ffff00;stroke:black;" cx="124" cy="-257" rx="11" ry="11"/>
<text text-anchor="middle" x="124" y="-251" style="font-family:Nimbus Roman No9 L;font-weight:regular;font-size:11.34pt;fill:#000000;">v_8</text>
</g>
<!-- 9&#45;&#45;8 -->
<g id="edge24" class="edge"><title>9&#45;&#45;8</title>
<path style="fill:none;stroke:black;" d="M124,-304C124,-294 124,-278 124,-268"/>
</g>
<!-- 12 -->
<g id="node27" class="node"><title>12</title>
<ellipse style="fill:lightgrey;stroke:black;" cx="172" cy="-18" rx="18" ry="18"/>
<text text-anchor="middle" x="172" y="-12" style="font-family:Nimbus Roman No9 L;font-weight:regular;font-size:11.34pt;fill:#000000;">12</text>
</g>
<!-- 13&#45;&#45;12 -->
<g id="edge26" class="edge"><title>13&#45;&#45;12</title>
<path style="fill:none;stroke:black;" d="M172,-72C172,-62 172,-48 172,-36"/>
</g>
<!-- 6&#45;&#45;9 -->
<g id="edge32" class="edge"><title>6&#45;&#45;9</title>
<path style="fill:none;stroke:black;" d="M117,-362C118,-352 121,-336 122,-326"/>
</g>
<!-- 8&#45;&#45;11 -->
<g id="edge34" class="edge"><title>8&#45;&#45;11</title>
<path style="fill:none;stroke:black;" d="M124,-246C124,-236 124,-220 124,-210"/>
</g>
</g>
</svg>
